<svg xmlns="http://www.w3.org/2000/svg" viewBox="0 0 32 32">
  <defs>
    <linearGradient id="bgGrad" x1="0%" y1="0%" x2="100%" y2="100%">
      <stop offset="0%" style="stop-color:#1565C0"/>
      <stop offset="100%" style="stop-color:#7B1FA2"/>
    </linearGradient>
  </defs>
  <!-- Background rounded square -->
  <rect width="32" height="32" rx="6" fill="url(#bgGrad)"/>
  <!-- Book/Document icon -->
  <path d="M8 6h12c1 0 2 1 2 2v16c0 1-1 2-2 2H8c-1 0-2-1-2-2V8c0-1 1-2 2-2z" fill="white" opacity="0.95"/>
  <!-- Book spine line -->
  <path d="M10 6v20" stroke="#1565C0" stroke-width="1" opacity="0.3"/>
  <!-- Text lines on document -->
  <rect x="12" y="10" width="7" height="1.5" rx="0.5" fill="#1565C0" opacity="0.4"/>
  <rect x="12" y="13" width="5" height="1.5" rx="0.5" fill="#1565C0" opacity="0.4"/>
  <rect x="12" y="16" width="6" height="1.5" rx="0.5" fill="#1565C0" opacity="0.4"/>
  <!-- Checkmark circle -->
  <circle cx="22" cy="22" r="7" fill="#4CAF50"/>
  <path d="M19 22l2 2 4-4" stroke="white" stroke-width="2" stroke-linecap="round" stroke-linejoin="round" fill="none"/>
</svg>
